<svg xmlns="http://www.w3.org/2000/svg" width="774" height="302" viewBox="0 0 774 302" fill="none"><path d="M6.48669 294.829V254.476C6.48669 252.377 6.97245 250.814 7.93821 249.765C8.90685 248.715 10.1664 248.191 11.7014 248.191C13.2739 248.191 14.5574 248.702 15.5376 249.741C16.5158 250.779 17.0131 252.353 17.0131 254.476V294.829C17.0131 296.953 16.5158 298.527 15.5376 299.575C14.5574 300.626 13.2739 301.152 11.7014 301.152C10.1904 301.152 8.94429 300.626 7.96221 299.564C6.98397 298.504 6.48669 296.93 6.48669 294.829ZM42.5193 254.416L62.7465 284.619V254.13C62.7465 252.15 63.1823 250.672 64.0415 249.681C64.8998 248.691 66.0614 248.191 67.5254 248.191C69.0249 248.191 70.2229 248.679 71.0946 249.67C71.9663 250.661 72.4022 252.151 72.4022 254.13V294.413C72.4022 298.909 70.5129 301.153 66.7401 301.153C65.7954 301.153 64.9478 301.021 64.1874 300.746C63.4367 300.484 62.7235 300.054 62.0697 299.481C61.4044 298.898 60.7986 298.218 60.2294 297.43C59.663 296.654 59.0927 295.855 58.5244 295.044L38.7916 265.224V295.21C38.7916 297.168 38.3318 298.647 37.4111 299.649C36.4799 300.651 35.2953 301.153 33.8553 301.153C32.3673 301.153 31.1692 300.651 30.2726 299.638C29.3654 298.623 28.918 297.145 28.918 295.211V255.705C28.918 254.023 29.112 252.711 29.4864 251.757C29.9347 250.709 30.6844 249.849 31.7241 249.181C32.7657 248.525 33.8908 248.191 35.087 248.191C36.0432 248.191 36.8553 248.346 37.5187 248.644C38.1974 248.954 38.7897 249.36 39.2975 249.872C39.8063 250.384 40.3257 251.042 40.8585 251.863C41.3913 252.676 41.9481 253.523 42.5183 254.416H42.5193ZM90.4549 249.048H104.172C107.744 249.048 110.803 249.371 113.357 250.026C115.922 250.684 118.233 251.912 120.315 253.701C125.721 258.269 128.432 265.223 128.432 274.54C128.432 277.617 128.167 280.42 127.621 282.961C127.077 285.5 126.231 287.79 125.106 289.831C123.968 291.87 122.516 293.695 120.737 295.305C119.347 296.534 117.822 297.525 116.166 298.265C114.507 299.016 112.728 299.54 110.828 299.839C108.931 300.137 106.776 300.293 104.391 300.293H90.6719C88.7605 300.293 87.3205 300.006 86.3423 299.433C85.3737 298.861 84.7439 298.062 84.453 297.025C84.1497 295.987 84.0047 294.638 84.0047 292.993V255.407C84.0047 253.176 84.5116 251.553 85.5301 250.553C86.5458 249.551 88.1922 249.049 90.4559 249.049L90.4549 249.048ZM94.5292 257.279V292.062H102.516C104.257 292.062 105.636 292.014 106.63 291.919C107.622 291.824 108.648 291.598 109.713 291.228C110.779 290.845 111.698 290.321 112.473 289.652C115.994 286.718 117.76 281.661 117.76 274.48C117.76 269.422 116.985 265.629 115.437 263.113C113.889 260.596 111.977 258.997 109.713 258.305C107.438 257.626 104.695 257.279 101.486 257.279H94.5292ZM137.735 279.108V254.476C137.735 252.377 138.219 250.814 139.175 249.765C140.131 248.715 141.392 248.191 142.95 248.191C144.572 248.191 145.867 248.715 146.819 249.765C147.776 250.815 148.259 252.39 148.259 254.476V279.679C148.259 282.542 148.588 284.94 149.241 286.86C149.884 288.782 151.042 290.273 152.69 291.335C154.348 292.395 156.657 292.921 159.633 292.921C163.747 292.921 166.651 291.846 168.358 289.686C170.064 287.528 170.91 284.261 170.91 279.881V254.475C170.91 252.365 171.383 250.778 172.326 249.74C173.27 248.702 174.54 248.19 176.124 248.19C177.697 248.19 178.98 248.701 179.96 249.74C180.94 250.778 181.436 252.365 181.436 254.475V279.107C181.436 283.115 181.036 286.467 180.25 289.139C179.453 291.823 177.963 294.174 175.762 296.201C173.875 297.918 171.673 299.171 169.169 299.971C166.664 300.757 163.736 301.152 160.385 301.152C156.392 301.152 152.956 300.721 150.064 299.875C147.186 299.027 144.838 297.703 143.024 295.926C141.196 294.15 139.866 291.859 139.007 289.08C138.159 286.301 137.736 282.973 137.736 279.108H137.735ZM232.313 284.929C232.313 288.018 231.501 290.797 229.879 293.266C228.271 295.735 225.898 297.668 222.779 299.063C219.657 300.459 215.955 301.152 211.685 301.152C206.555 301.152 202.321 300.197 198.993 298.301C196.635 296.929 194.721 295.09 193.246 292.802C191.77 290.511 191.033 288.28 191.033 286.11C191.033 284.857 191.48 283.782 192.365 282.877C193.246 281.982 194.371 281.541 195.739 281.541C196.852 281.541 197.783 281.886 198.546 282.589C199.321 283.281 199.974 284.32 200.517 285.703C201.173 287.326 201.897 288.698 202.66 289.783C203.432 290.88 204.51 291.787 205.902 292.501C207.304 293.206 209.132 293.563 211.405 293.563C214.515 293.563 217.056 292.848 219.003 291.416C220.951 289.985 221.932 288.195 221.932 286.049C221.932 284.343 221.41 282.96 220.359 281.91C219.307 280.848 217.941 280.037 216.27 279.476C214.612 278.916 212.374 278.318 209.591 277.687C205.863 276.828 202.733 275.815 200.227 274.67C197.71 273.512 195.713 271.938 194.238 269.945C192.762 267.954 192.024 265.484 192.024 262.514C192.024 259.699 192.799 257.193 194.359 255C195.919 252.817 198.183 251.135 201.134 249.953C204.087 248.772 207.559 248.189 211.552 248.189C214.733 248.189 217.492 248.581 219.827 249.358C222.151 250.144 224.086 251.183 225.623 252.471C227.148 253.759 228.272 255.12 228.986 256.539C229.688 257.958 230.051 259.353 230.051 260.702C230.051 261.931 229.604 263.05 228.721 264.041C227.838 265.031 226.724 265.52 225.405 265.52C224.194 265.52 223.287 265.223 222.659 264.638C222.028 264.041 221.353 263.062 220.627 261.716C219.671 259.782 218.546 258.268 217.213 257.182C215.896 256.098 213.767 255.56 210.827 255.56C208.116 255.56 205.914 256.146 204.256 257.325C202.587 258.506 201.751 259.914 201.751 261.572C201.751 262.598 202.03 263.481 202.598 264.232C203.167 264.972 203.955 265.615 204.945 266.154C205.937 266.69 206.942 267.107 207.96 267.418C208.974 267.716 210.657 268.157 212.992 268.742C215.92 269.421 218.581 270.162 220.952 270.984C223.324 271.796 225.345 272.785 227.015 273.954C228.682 275.112 229.977 276.59 230.911 278.367C231.842 280.158 232.315 282.34 232.315 284.929H232.313ZM275.009 257.638H263.527V294.829C263.527 296.977 263.042 298.563 262.063 299.601C261.095 300.638 259.837 301.152 258.3 301.152C256.739 301.152 255.457 300.626 254.477 299.575C253.498 298.527 253.001 296.953 253.001 294.829V257.638H241.519C239.717 257.638 238.386 257.243 237.514 256.469C236.643 255.68 236.195 254.643 236.195 253.355C236.195 252.03 236.656 250.981 237.562 250.205C238.471 249.43 239.789 249.047 241.519 249.047H275.009C276.835 249.047 278.178 249.441 279.075 250.24C279.956 251.04 280.403 252.079 280.403 253.354C280.403 254.641 279.944 255.679 279.051 256.468C278.153 257.242 276.811 257.637 275.008 257.637L275.009 257.638ZM300.754 278.392H297.065V294.83C297.065 297.002 296.581 298.588 295.613 299.614C294.646 300.638 293.375 301.153 291.826 301.153C290.144 301.153 288.84 300.615 287.919 299.541C286.998 298.469 286.541 296.907 286.541 294.83V255.408C286.541 253.177 287.047 251.554 288.064 250.554C289.082 249.552 290.725 249.05 292.988 249.05H310.108C312.466 249.05 314.488 249.147 316.17 249.349C317.852 249.552 319.365 249.944 320.707 250.554C322.339 251.233 323.779 252.199 325.038 253.452C326.285 254.717 327.241 256.183 327.881 257.841C328.533 259.511 328.861 261.276 328.861 263.15C328.861 266.965 327.772 270.019 325.581 272.31C323.392 274.589 320.075 276.21 315.636 277.165C317.5 278.142 319.29 279.585 320.996 281.495C322.689 283.402 324.214 285.441 325.545 287.589C326.876 289.747 327.917 291.68 328.668 293.422C329.405 295.151 329.78 296.344 329.78 297.001C329.78 297.668 329.562 298.337 329.126 299.004C328.692 299.672 328.098 300.198 327.338 300.579C326.585 300.96 325.702 301.153 324.711 301.153C323.537 301.153 322.544 300.877 321.734 300.329C320.936 299.781 320.247 299.088 319.664 298.254C319.085 297.419 318.297 296.178 317.306 294.557L313.085 287.638C311.572 285.109 310.217 283.178 309.03 281.853C307.832 280.517 306.622 279.609 305.388 279.122C304.166 278.633 302.618 278.393 300.753 278.393L300.754 278.392ZM306.779 256.851H297.065V270.95H306.49C309.019 270.95 311.146 270.736 312.878 270.307C314.597 269.877 315.917 269.138 316.822 268.1C317.73 267.062 318.19 265.631 318.19 263.817C318.19 262.386 317.827 261.133 317.089 260.047C316.363 258.964 315.346 258.151 314.039 257.616C312.817 257.102 310.398 256.852 306.78 256.852L306.779 256.851ZM339.253 294.83V254.477C339.253 252.378 339.738 250.815 340.705 249.766C341.673 248.716 342.933 248.191 344.468 248.191C346.04 248.191 347.324 248.703 348.304 249.742C349.282 250.78 349.78 252.354 349.78 254.477V294.83C349.78 296.954 349.282 298.528 348.304 299.576C347.324 300.627 346.04 301.153 344.468 301.153C342.957 301.153 341.711 300.627 340.729 299.565C339.75 298.505 339.253 296.931 339.253 294.83ZM394.799 294.485L392.321 288.054H371.196L368.715 294.615C367.746 297.18 366.924 298.909 366.235 299.805C365.557 300.699 364.432 301.153 362.872 301.153C361.553 301.153 360.379 300.675 359.362 299.721C358.347 298.766 357.837 297.68 357.837 296.476C357.837 295.773 357.958 295.044 358.189 294.306C358.431 293.553 358.817 292.527 359.361 291.193L372.647 257.936C373.033 256.982 373.481 255.837 374.014 254.501C374.547 253.153 375.115 252.045 375.719 251.162C376.323 250.278 377.111 249.563 378.091 249.014C379.069 248.466 380.28 248.192 381.72 248.192C383.195 248.192 384.417 248.466 385.397 249.014C386.378 249.563 387.164 250.267 387.769 251.126C388.374 251.985 388.881 252.915 389.294 253.905C389.706 254.895 390.239 256.22 390.868 257.865L404.442 290.918C405.507 293.435 406.038 295.259 406.038 296.405C406.038 297.586 405.543 298.685 404.539 299.675C403.535 300.664 402.315 301.155 400.899 301.155C400.075 301.155 399.362 301.012 398.767 300.712C398.187 300.426 397.69 300.033 397.279 299.531C396.881 299.031 396.458 298.256 395.996 297.23C395.524 296.192 395.138 295.273 394.798 294.486L394.799 294.485ZM373.967 280.254H389.489L381.66 259.141L373.968 280.254H373.967ZM424.056 254.477V291.776H445.396C447.09 291.776 448.397 292.181 449.306 292.994C450.224 293.815 450.673 294.842 450.673 296.07C450.673 297.323 450.224 298.35 449.33 299.124C448.434 299.9 447.115 300.293 445.396 300.293H419.978C417.692 300.293 416.046 299.793 415.042 298.79C414.038 297.788 413.529 296.166 413.529 293.934V254.477C413.529 252.39 414.013 250.815 414.969 249.766C415.925 248.716 417.184 248.191 418.744 248.191C420.318 248.191 421.598 248.703 422.578 249.742C423.558 250.78 424.056 252.367 424.056 254.477ZM483.45 255.003L495.21 289.344L507.006 254.765C507.623 252.939 508.083 251.673 508.385 250.971C508.7 250.255 509.207 249.623 509.91 249.049C510.624 248.477 511.592 248.191 512.813 248.191C513.709 248.191 514.542 248.417 515.317 248.859C516.079 249.301 516.686 249.885 517.12 250.625C517.556 251.352 517.776 252.092 517.776 252.843C517.776 253.345 517.701 253.904 517.556 254.501C517.423 255.086 517.241 255.67 517.036 256.243C516.818 256.815 516.601 257.399 516.395 258.008L503.825 291.479C503.363 292.756 502.918 293.971 502.47 295.128C502.021 296.273 501.502 297.288 500.909 298.169C500.328 299.04 499.542 299.757 498.562 300.317C497.582 300.876 496.384 301.152 494.968 301.152C493.54 301.152 492.344 300.876 491.363 300.328C490.383 299.78 489.597 299.064 488.991 298.168C488.399 297.263 487.866 296.248 487.418 295.103C486.972 293.969 486.525 292.754 486.075 291.478L473.713 258.281C473.493 257.685 473.275 257.088 473.057 256.504C472.829 255.918 472.647 255.288 472.49 254.619C472.332 253.94 472.261 253.368 472.261 252.901C472.261 251.72 472.745 250.637 473.713 249.657C474.679 248.679 475.901 248.191 477.365 248.191C479.156 248.191 480.425 248.726 481.166 249.812C481.915 250.898 482.677 252.627 483.452 255.002L483.45 255.003ZM555.254 294.485L552.776 288.054H531.651L529.17 294.615C528.201 297.18 527.379 298.909 526.69 299.805C526.012 300.699 524.887 301.153 523.327 301.153C522.008 301.153 520.834 300.675 519.817 299.721C518.801 298.766 518.292 297.68 518.292 296.476C518.292 295.773 518.413 295.044 518.644 294.306C518.886 293.553 519.272 292.527 519.817 291.193L533.103 257.936C533.489 256.982 533.937 255.837 534.47 254.501C535.001 253.153 535.571 252.045 536.175 251.162C536.78 250.278 537.567 249.563 538.547 249.014C539.526 248.466 540.736 248.192 542.176 248.192C543.651 248.192 544.873 248.466 545.854 249.014C546.833 249.563 547.621 250.267 548.225 251.126C548.831 251.985 549.337 252.915 549.75 253.905C550.162 254.895 550.693 256.22 551.325 257.865L564.898 290.918C565.964 293.435 566.495 295.259 566.495 296.405C566.495 297.586 565.999 298.685 564.995 299.675C563.991 300.664 562.769 301.155 561.355 301.155C560.531 301.155 559.818 301.012 559.224 300.712C558.644 300.426 558.146 300.033 557.736 299.531C557.336 299.031 556.915 298.256 556.453 297.23C555.982 296.192 555.596 295.273 555.255 294.486L555.254 294.485ZM534.422 280.254H549.944L542.115 259.141L534.423 280.254H534.422ZM584.511 254.477V291.776H605.852C607.545 291.776 608.853 292.181 609.761 292.994C610.679 293.815 611.128 294.842 611.128 296.07C611.128 297.323 610.68 298.35 609.785 299.124C608.888 299.9 607.57 300.293 605.852 300.293H580.433C578.147 300.293 576.502 299.793 575.497 298.79C574.493 297.788 573.984 296.166 573.984 293.934V254.477C573.984 252.39 574.468 250.815 575.424 249.766C576.381 248.716 577.638 248.191 579.199 248.191C580.774 248.191 582.053 248.703 583.033 249.742C584.014 250.78 584.511 252.367 584.511 254.477ZM617.563 255.003L629.325 289.344L641.119 254.765C641.735 252.939 642.196 251.673 642.5 250.971C642.813 250.255 643.321 249.623 644.023 249.049C644.736 248.477 645.705 248.191 646.927 248.191C647.824 248.191 648.658 248.417 649.432 248.859C650.194 249.301 650.801 249.885 651.235 250.625C651.67 251.352 651.89 252.092 651.89 252.843C651.89 253.345 651.815 253.904 651.67 254.501C651.538 255.086 651.356 255.67 651.149 256.243C650.933 256.815 650.715 257.399 650.509 258.008L637.939 291.479C637.477 292.756 637.031 293.971 636.584 295.128C636.135 296.273 635.615 297.288 635.023 298.169C634.441 299.04 633.656 299.757 632.675 300.317C631.695 300.876 630.497 301.152 629.082 301.152C627.654 301.152 626.458 300.876 625.477 300.328C624.497 299.78 623.711 299.064 623.104 298.168C622.512 297.263 621.979 296.248 621.531 295.103C621.083 293.969 620.638 292.754 620.188 291.478L607.825 258.281C607.606 257.685 607.388 257.088 607.17 256.504C606.94 255.918 606.76 255.288 606.601 254.619C606.445 253.94 606.374 253.368 606.374 252.901C606.374 251.72 606.858 250.637 607.825 249.657C608.792 248.679 610.014 248.191 611.478 248.191C613.269 248.191 614.538 248.726 615.277 249.812C616.028 250.898 616.79 252.627 617.563 255.002V255.003ZM694.041 257.066H670.326V269.662H692.166C693.774 269.662 694.972 270.019 695.759 270.724C696.559 271.426 696.945 272.37 696.945 273.527C696.945 274.685 696.559 275.637 695.782 276.366C694.998 277.092 693.8 277.464 692.166 277.464H670.326V292.063H694.851C696.509 292.063 697.754 292.445 698.589 293.197C699.436 293.947 699.86 294.962 699.86 296.214C699.86 297.419 699.436 298.41 698.589 299.161C697.754 299.912 696.509 300.294 694.851 300.294H666.251C663.963 300.294 662.318 299.794 661.314 298.791C660.308 297.789 659.801 296.167 659.801 293.935V255.408C659.801 253.917 660.03 252.7 660.478 251.757C660.926 250.815 661.627 250.123 662.584 249.694C663.54 249.265 664.76 249.049 666.251 249.049H694.041C695.723 249.049 696.968 249.42 697.78 250.147C698.589 250.887 699.002 251.852 699.002 253.034C699.002 254.251 698.589 255.229 697.78 255.967C696.968 256.696 695.723 257.066 694.041 257.066ZM747.711 284.931C747.711 288.02 746.899 290.799 745.279 293.268C743.67 295.737 741.298 297.67 738.177 299.065C735.055 300.461 731.354 301.154 727.082 301.154C721.954 301.154 717.72 300.198 714.391 298.302C712.034 296.931 710.121 295.092 708.645 292.804C707.168 290.513 706.431 288.282 706.431 286.111C706.431 284.859 706.879 283.784 707.762 282.879C708.645 281.983 709.771 281.543 711.137 281.543C712.249 281.543 713.181 281.888 713.946 282.591C714.72 283.283 715.371 284.322 715.917 285.705C716.57 287.328 717.295 288.7 718.059 289.785C718.832 290.882 719.909 291.789 721.3 292.503C722.705 293.208 724.531 293.565 726.806 293.565C729.915 293.565 732.456 292.85 734.403 291.418C736.352 289.987 737.33 288.197 737.33 286.051C737.33 284.345 736.811 282.962 735.758 281.911C734.706 280.85 733.34 280.039 731.668 279.478C730.012 278.918 727.773 278.32 724.991 277.689C721.264 276.83 718.131 275.817 715.626 274.672C713.11 273.514 711.114 271.94 709.638 269.947C708.163 267.956 707.422 265.486 707.422 262.516C707.422 259.701 708.199 257.195 709.759 255.002C711.32 252.819 713.583 251.137 716.535 249.955C719.486 248.774 722.958 248.191 726.951 248.191C730.133 248.191 732.89 248.583 735.228 249.36C737.551 250.146 739.485 251.185 741.023 252.473C742.547 253.761 743.673 255.122 744.386 256.541C745.087 257.959 745.45 259.355 745.45 260.704C745.45 261.933 745.004 263.052 744.119 264.043C743.237 265.033 742.124 265.522 740.805 265.522C739.596 265.522 738.687 265.225 738.059 264.64C737.429 264.043 736.752 263.064 736.027 261.718C735.07 259.784 733.944 258.27 732.614 257.184C731.295 256.1 729.167 255.562 726.226 255.562C723.517 255.562 721.314 256.148 719.657 257.327C717.987 258.508 717.151 259.916 717.151 261.574C717.151 262.6 717.428 263.483 717.999 264.234C718.567 264.974 719.353 265.617 720.345 266.156C721.338 266.692 722.342 267.109 723.357 267.42C724.373 267.718 726.057 268.158 728.391 268.744C731.318 269.423 733.98 270.164 736.352 270.986C738.723 271.798 740.743 272.787 742.413 273.956C744.082 275.114 745.377 276.592 746.31 278.369C747.239 280.159 747.713 282.342 747.713 284.931H747.711Z" fill="white"></path><path fill-rule="evenodd" clip-rule="evenodd" d="M46.4112 0.382078H166.754L155.184 41.7043H34.8451L46.4121 0.382078H46.4112ZM149.33 62.615L137.763 103.937H67.2508L49.8307 166.17H0L28.9901 62.6159H149.329L149.33 62.615ZM141.006 166.169L187.182 1.2259H203.242H219.417L173.241 166.169H157.181H141.006ZM252.103 169.31C233.013 169.31 219.433 163.603 211.369 152.151C203.304 140.701 202 125.232 207.448 105.775C213.013 85.8988 223.075 70.0818 237.616 58.4035C252.165 46.6847 268.985 40.8249 288.075 40.8249C307.316 40.8249 320.934 46.6847 328.883 58.4035C336.844 70.0818 338.014 85.8988 332.449 105.775C327.001 125.232 317.075 140.701 302.637 152.151C288.199 163.604 271.346 169.31 252.104 169.31H252.103ZM259.641 142.387C269.223 142.387 277.424 139.247 284.203 132.967C290.981 126.685 296.049 117.493 299.425 105.432C302.879 93.0988 303.002 83.7551 299.771 77.3606C296.538 70.966 290.118 67.7481 280.536 67.7481C270.954 67.7481 262.768 70.966 255.995 77.3606C249.223 83.7551 244.114 93.0988 240.662 105.432C237.287 117.493 237.202 126.686 240.427 132.967C243.654 139.247 250.056 142.387 259.64 142.387H259.641ZM354.532 166.17L353.219 44.0793H370.277H387.372L381.782 133.733H381.9L425.205 44.0793H441.266H457.442L450.331 133.961L495.351 44.0793H511.527H527.857L458.297 166.17H441.891H425.369L432.076 75.2543H432.154L387.421 166.17H371.018H354.532ZM539.062 44.0793H555.123H571.298L533.389 179.494C529.679 192.747 524.209 202.014 517.006 207.337C509.764 212.661 499.099 215.304 484.955 215.304L476.209 215.187L483.403 189.489L487.318 189.604C491.651 189.604 494.757 188.914 496.636 187.538C498.519 186.161 500.038 183.477 501.148 179.494L539.062 44.0793ZM551.171 0H583.946L575.593 29.8348H542.818L551.17 0H551.171ZM609.27 169.31C590.682 169.31 577.981 163.603 571.106 152.151C564.232 140.701 563.776 124.388 569.704 103.209C575.173 83.6783 584.589 68.3961 597.911 57.3705C611.272 46.3401 627.036 40.8259 645.242 40.8259C663.874 40.8259 676.634 46.4544 683.562 57.7161C690.493 68.974 691.031 84.982 685.2 105.812C684.686 108.187 683.809 110.639 682.586 113.09H599.408C597.473 122.74 597.553 129.978 599.74 134.767C602.552 140.739 609.23 143.728 619.694 143.728C624.563 143.728 629.47 142.348 634.383 139.591C639.345 136.796 642.758 133.501 644.656 129.594H677.431C671.197 142.004 662.032 151.732 650.016 158.777C637.975 165.784 624.376 169.31 609.272 169.31H609.27ZM655.328 92.5622C656.619 85.2095 656.301 79.5033 654.315 75.3686C651.707 69.8908 646.068 67.1731 637.406 67.1731C629.087 67.1731 621.874 70.3497 615.761 76.7087C611.943 80.7666 608.508 86.0524 605.497 92.5622H655.328ZM739.234 166.819C733.7 167.278 727.004 167.507 719.147 167.507C707.762 167.507 700.166 165.479 696.329 161.382C692.482 157.321 691.856 150.661 694.463 141.354L715.38 66.6374H698.437L704.752 44.0812H721.696L730.893 11.2233H763.13L753.933 44.0812H773.595L767.28 66.6374H747.618L728.212 135.954C727.407 138.825 727.736 140.666 729.166 141.583C730.606 142.463 733.964 142.923 739.293 142.923H745.923L739.234 166.82V166.819Z" fill="#26448C"></path></svg>