<?xml version="1.0" encoding="UTF-8"?><svg id="Layer_1" xmlns="http://www.w3.org/2000/svg" viewBox="0 0 422.21 42.92"><defs><style>.cls-1{fill:#1467b3;}</style></defs><path class="cls-1" d="M40.1.69H0v12.33h11.79v29.23h16.69V13.03h11.62V.69ZM51.56.69l-15.67,41.55h16.01l8.43-24.65,8.6,24.65h16.18L68.92.69h-17.37ZM121.33.69h-40.1v12.33h11.96v29.23h16.69V13.03h11.45V.69ZM132.78.69l-15.67,41.55h16.01l8.44-24.65,8.59,24.65h16.17L150.15.69h-17.37ZM221.59.69l-5.73,16.64c-1.61,4.87-3.02,9.99-4.14,14.49h-.18c-1.05-4.62-2.35-9.56-3.82-14.42l-5.43-16.71h-9.99l-2.78,41.55h7.09l.92-16.71c.31-5.68.55-12.27.74-17.7h.12c1.11,5.18,2.59,10.85,4.19,16.15l5.55,17.75h5.86l6.04-18c1.85-5.25,3.58-10.85,4.93-15.91h.18c-.06,5.61.25,12.09.5,17.45l.8,16.96h7.4l-2.4-41.55h-9.87.01ZM260.07.01c12.14,0,19.3,9.19,19.3,21.03,0,13.93-8.45,21.89-19.92,21.89s-19.11-8.94-19.11-21.15S248.35.01,260.07.01ZM259.89,36.82c7.34,0,11.48-6.77,11.48-15.47,0-7.83-3.89-15.23-11.48-15.23s-11.53,6.97-11.53,15.53,4.26,15.17,11.53,15.17ZM281.29,7.05h11.84v35.2h7.58V7.04h11.96V.69h-31.39v6.34h0ZM334.31.01c12.14,0,19.3,9.19,19.3,21.03,0,13.93-8.45,21.89-19.92,21.89s-19.11-8.94-19.11-21.15S322.59.01,334.31.01ZM334.13,36.82c7.34,0,11.46-6.77,11.46-15.47,0-7.83-3.89-15.23-11.46-15.23s-11.53,6.97-11.53,15.53,4.26,15.17,11.53,15.17ZM381.43,22.63c2.96,1.11,4.75,4.01,5.8,8.01,1.29,5.18,2.4,9.99,3.26,11.59h-7.83c-.62-1.23-1.61-4.62-2.77-9.8-1.17-5.43-3.14-7.15-7.47-7.27h-3.82v17.08h-7.52V1.25c2.83-.49,7.09-.86,11.46-.86,5.98,0,10.05.99,12.82,3.33,2.28,1.91,3.58,4.81,3.58,8.33,0,5.36-3.64,9.01-7.52,10.42v.18M373.1,19.62c5.12,0,8.33-2.71,8.33-6.84,0-4.57-3.21-6.66-8.15-6.66-2.4,0-3.94.18-4.68.36v13.13h4.5M411.51,18.07c-5.55-2.15-7.95-3.64-7.95-6.84,0-2.4,2.1-5,6.9-5,3.89,0,6.79,1.17,8.26,1.97l1.85-6.11c-2.16-1.11-5.5-2.1-9.99-2.1-9.01,0-14.68,5.18-14.68,11.96,0,5.98,4.37,9.62,11.22,12.09,5.31,1.91,7.4,3.76,7.4,6.9,0,3.4-2.72,5.68-7.59,5.68-3.89,0-7.58-1.23-10.05-2.65l-1.67,6.29c2.28,1.35,6.84,2.58,11.23,2.58,10.73,0,15.78-5.8,15.78-12.45,0-5.98-3.51-9.62-10.73-12.33"/></svg>